<mxfile host="app.diagrams.net" modified="2021-05-23T06:13:39.806Z" agent="5.0 (Windows NT 10.0; Win64; x64) AppleWebKit/537.36 (KHTML, like Gecko) Chrome/90.0.4430.41 YaBrowser/21.5.0.579 Yowser/2.5 Safari/537.36" etag="Z30Tm7rWIjkuWRnRxH9F" version="14.7.0" type="github">
  <diagram name="Page-1" id="b98fa263-6416-c6ec-5b7d-78bf54ef71d0">
    <mxGraphModel dx="1736" dy="1030" grid="1" gridSize="10" guides="1" tooltips="1" connect="1" arrows="1" fold="1" page="1" pageScale="1.5" pageWidth="1169" pageHeight="826" background="none" math="0" shadow="0">
      <root>
        <mxCell id="0" style=";html=1;" />
        <mxCell id="1" style=";html=1;" parent="0" />
        <mxCell id="hGJiqtzEMrPvGOiOVViN-1" value="" style="rounded=0;whiteSpace=wrap;html=1;" vertex="1" parent="1">
          <mxGeometry x="40" y="40" width="1680" height="1890" as="geometry" />
        </mxCell>
        <mxCell id="hGJiqtzEMrPvGOiOVViN-12" value="&lt;font style=&quot;font-size: 26px&quot;&gt;&lt;b&gt;Шапка&lt;br&gt;&lt;br&gt;&lt;br&gt;&lt;br&gt;&lt;/b&gt;&lt;/font&gt;" style="rounded=0;whiteSpace=wrap;html=1;fillColor=#f8cecc;strokeColor=#b85450;" vertex="1" parent="1">
          <mxGeometry x="60" y="60" width="1640" height="120" as="geometry" />
        </mxCell>
        <mxCell id="hGJiqtzEMrPvGOiOVViN-2" value="&lt;font style=&quot;font-size: 26px&quot;&gt;Логотип&lt;/font&gt;" style="rounded=0;whiteSpace=wrap;html=1;" vertex="1" parent="1">
          <mxGeometry x="80" y="100" width="120" height="70" as="geometry" />
        </mxCell>
        <mxCell id="hGJiqtzEMrPvGOiOVViN-4" value="&lt;font style=&quot;font-size: 26px&quot;&gt;Туры&lt;/font&gt;" style="rounded=0;whiteSpace=wrap;html=1;" vertex="1" parent="1">
          <mxGeometry x="390" y="100" width="120" height="70" as="geometry" />
        </mxCell>
        <mxCell id="hGJiqtzEMrPvGOiOVViN-5" value="&lt;font style=&quot;font-size: 26px&quot;&gt;Отзывы&lt;/font&gt;" style="rounded=0;whiteSpace=wrap;html=1;" vertex="1" parent="1">
          <mxGeometry x="910" y="100" width="120" height="70" as="geometry" />
        </mxCell>
        <mxCell id="hGJiqtzEMrPvGOiOVViN-6" value="&lt;font style=&quot;font-size: 26px&quot;&gt;Скидки&lt;/font&gt;" style="rounded=0;whiteSpace=wrap;html=1;" vertex="1" parent="1">
          <mxGeometry x="780" y="100" width="120" height="70" as="geometry" />
        </mxCell>
        <mxCell id="hGJiqtzEMrPvGOiOVViN-7" value="&lt;font style=&quot;font-size: 26px&quot;&gt;Галерея&lt;/font&gt;" style="rounded=0;whiteSpace=wrap;html=1;" vertex="1" parent="1">
          <mxGeometry x="650" y="100" width="120" height="70" as="geometry" />
        </mxCell>
        <mxCell id="hGJiqtzEMrPvGOiOVViN-8" value="&lt;font style=&quot;font-size: 26px&quot;&gt;Даты заездов&lt;/font&gt;" style="rounded=0;whiteSpace=wrap;html=1;" vertex="1" parent="1">
          <mxGeometry x="520" y="100" width="120" height="70" as="geometry" />
        </mxCell>
        <mxCell id="hGJiqtzEMrPvGOiOVViN-9" value="&lt;font style=&quot;font-size: 26px&quot;&gt;Контакты&lt;/font&gt;" style="rounded=0;whiteSpace=wrap;html=1;" vertex="1" parent="1">
          <mxGeometry x="1040" y="100" width="120" height="70" as="geometry" />
        </mxCell>
        <mxCell id="hGJiqtzEMrPvGOiOVViN-11" value="&lt;font style=&quot;font-size: 26px&quot;&gt;Поиск&lt;/font&gt;" style="rounded=0;whiteSpace=wrap;html=1;" vertex="1" parent="1">
          <mxGeometry x="1350" y="100" width="120" height="70" as="geometry" />
        </mxCell>
        <mxCell id="hGJiqtzEMrPvGOiOVViN-14" value="" style="rounded=0;whiteSpace=wrap;html=1;rotation=0;fillColor=#f5f5f5;strokeColor=#666666;fontColor=#333333;" vertex="1" parent="1">
          <mxGeometry x="60" y="200" width="1640" height="1630" as="geometry" />
        </mxCell>
        <mxCell id="hGJiqtzEMrPvGOiOVViN-16" value="&lt;span style=&quot;font-size: 26px&quot;&gt;&lt;b&gt; Основной блок&lt;/b&gt;&lt;/span&gt;" style="text;html=1;strokeColor=none;fillColor=none;align=center;verticalAlign=middle;whiteSpace=wrap;rounded=0;" vertex="1" parent="1">
          <mxGeometry x="790" y="200" width="220" height="50" as="geometry" />
        </mxCell>
        <mxCell id="hGJiqtzEMrPvGOiOVViN-17" value="" style="rounded=0;whiteSpace=wrap;html=1;fillColor=#f8cecc;strokeColor=#b85450;" vertex="1" parent="1">
          <mxGeometry x="80" y="250" width="1600" height="360" as="geometry" />
        </mxCell>
        <mxCell id="hGJiqtzEMrPvGOiOVViN-19" value="&lt;font style=&quot;font-size: 26px&quot;&gt;&lt;b&gt;Баннер&lt;/b&gt;&lt;/font&gt;" style="text;html=1;strokeColor=none;fillColor=none;align=center;verticalAlign=middle;whiteSpace=wrap;rounded=0;" vertex="1" parent="1">
          <mxGeometry x="770" y="260" width="260" height="40" as="geometry" />
        </mxCell>
        <mxCell id="hGJiqtzEMrPvGOiOVViN-20" value="" style="rounded=0;whiteSpace=wrap;html=1;" vertex="1" parent="1">
          <mxGeometry x="77" y="630" width="1600" height="230" as="geometry" />
        </mxCell>
        <mxCell id="hGJiqtzEMrPvGOiOVViN-21" value="&lt;font style=&quot;font-size: 26px&quot;&gt;&lt;b&gt;Баннер&lt;/b&gt;&lt;/font&gt;" style="text;html=1;strokeColor=none;fillColor=none;align=center;verticalAlign=middle;whiteSpace=wrap;rounded=0;" vertex="1" parent="1">
          <mxGeometry x="780" y="270" width="260" height="40" as="geometry" />
        </mxCell>
      </root>
    </mxGraphModel>
  </diagram>
</mxfile>
